<svg xmlns="http://www.w3.org/2000/svg" viewBox="0 0 1200 800" role="img" aria-label="">
  <defs>
    <linearGradient id="bg" x1="0" x2="1" y1="0" y2="1">
      <stop offset="0" stop-color="#102b4a"/>
      <stop offset="0.45" stop-color="#071426"/>
      <stop offset="1" stop-color="#02040a"/>
    </linearGradient>
    <radialGradient id="glow" cx="72%" cy="18%" r="68%">
      <stop offset="0" stop-color="#5aa8ff" stop-opacity="0.45"/>
      <stop offset="0.42" stop-color="#1c5f9f" stop-opacity="0.18"/>
      <stop offset="1" stop-color="#02040a" stop-opacity="0"/>
    </radialGradient>
    <linearGradient id="line" x1="0" x2="1">
      <stop offset="0" stop-color="#9bd2ff" stop-opacity="0"/>
      <stop offset="0.5" stop-color="#9bd2ff" stop-opacity="0.7"/>
      <stop offset="1" stop-color="#9bd2ff" stop-opacity="0"/>
    </linearGradient>
  </defs>
  <rect width="1200" height="800" fill="url(#bg)"/>
  <rect width="1200" height="800" fill="url(#glow)"/>
  <g opacity="0.16" stroke="#9bd2ff" stroke-width="1">
    <path d="M0 120H1200"/>
    <path d="M0 240H1200"/>
    <path d="M0 360H1200"/>
    <path d="M0 480H1200"/>
    <path d="M0 600H1200"/>
    <path d="M0 720H1200"/>
    <path d="M160 0V800"/>
    <path d="M320 0V800"/>
    <path d="M480 0V800"/>
    <path d="M640 0V800"/>
    <path d="M800 0V800"/>
    <path d="M960 0V800"/>
  </g>
  <g fill="none" stroke="url(#line)" stroke-width="4" opacity="0.72">
    <path d="M-60 640C180 520 300 540 480 420S800 180 1260 260"/>
    <path d="M-80 410C130 300 340 330 510 270S790 80 1240 130"/>
  </g>
  <circle cx="910" cy="190" r="145" fill="none" stroke="#9bd2ff" stroke-opacity="0.26" stroke-width="2"/>
  <circle cx="928" cy="190" r="64" fill="#5aa8ff" fill-opacity="0.14"/>
</svg>
